# Blender v2.79 (sub 0) OBJ File: 'LowPoly MasterFile.blend'
# www.blender.org
o sky.Morning_sky.003
v 0.236626 0.666446 0.647150
v 0.451034 0.668260 0.518596
v 0.315316 0.466909 0.775575
v -1.108134 0.459004 0.000000
v -1.023782 0.459004 -0.424065
v -0.848129 0.848129 0.000000
v -0.783569 0.848129 -0.324565
v -0.459004 1.108134 0.000000
v -1.199435 0.000000 0.000000
v -1.108134 0.000000 -0.459004
v -0.599718 0.848129 -0.599718
v -0.424064 1.108134 -0.175653
v -0.848129 0.000000 -0.848129
v -0.783569 0.459004 -0.783569
v -0.324565 0.848129 -0.783569
v -0.324565 1.108134 -0.324565
v -0.459004 0.000000 -1.108134
v -0.424065 0.459004 -1.023782
v 0.000000 0.848129 -0.848128
v -0.175653 1.108134 -0.424064
v 0.000000 0.000000 -1.199435
v 0.000000 0.459004 -1.108134
v 0.324564 0.848129 -0.783569
v 0.000000 1.108134 -0.459004
v 0.459004 0.000000 -1.108133
v 0.424064 0.459004 -1.023782
v 0.599717 0.848129 -0.599717
v 0.175653 1.108134 -0.424064
v 0.848128 0.000000 -0.848128
v 0.783568 0.459004 -0.783569
v 0.783568 0.848129 -0.324564
v 0.324564 1.108134 -0.324565
v 1.108133 0.000000 -0.459004
v 1.023782 0.459004 -0.424064
v 0.848128 0.848129 0.000000
v 0.424064 1.108134 -0.175653
v 1.199435 0.000000 0.000000
v 1.108133 0.459004 0.000000
v 0.783568 0.848129 0.324565
v 0.459003 1.108134 0.000000
v 1.108133 -0.000000 0.459004
v 1.023781 0.459004 0.424065
v 0.599717 0.848129 0.599718
v 0.424064 1.108134 0.175653
v 0.848128 -0.000000 0.848129
v 0.783568 0.459004 0.783569
v 0.324565 0.848129 0.783569
v 0.324564 1.108134 0.324565
v 0.459004 -0.000000 1.108133
v 0.424064 0.459004 1.023782
v 0.000000 0.848129 0.848128
v 0.175653 1.108134 0.424064
v 0.000000 -0.000000 1.199435
v 0.000000 0.459004 1.108133
v -0.324565 0.848129 0.783569
v -0.175653 1.108134 0.424064
v -0.459004 -0.000000 1.108133
v -0.424064 0.459004 1.023781
v -0.599717 0.848129 0.599717
v -0.848128 -0.000000 0.848128
v -0.783569 0.459004 0.783568
v -0.783569 0.848129 0.324565
v -0.324565 1.108134 0.324565
v -1.108133 -0.000000 0.459004
v -1.023782 0.459004 0.424064
v 0.000000 1.199435 0.000000
v 0.000000 1.108134 0.459004
v -0.424064 1.108134 0.175653
v 0.529724 0.468724 0.647021
vt 0.000000 0.000000
vt 0.500000 0.000000
vt 0.000000 1.000000
vt 0.750000 0.250000
vt 0.875000 0.250000
vt 0.755484 0.500000
vt 0.869516 0.500000
vt 0.771315 0.750000
vt 0.750000 -0.002570
vt 0.875000 -0.003352
vt 0.755484 0.500000
vt 0.869516 0.500000
vt 0.771315 0.750000
vt 0.750000 -0.002570
vt 0.875000 -0.003352
vt 0.750000 0.250000
vt 0.875000 0.250000
vt 0.755484 0.500000
vt 0.869516 0.500000
vt 0.771315 0.750000
vt 0.750000 -0.002570
vt 0.875000 -0.003352
vt 0.750000 0.250000
vt 0.875000 0.250000
vt 0.755484 0.500000
vt 0.869516 0.500000
vt 0.771315 0.750000
vt 0.750000 -0.002570
vt 0.875000 -0.003352
vt 0.750000 0.250000
vt 0.875000 0.250000
vt 0.755484 0.500000
vt 0.869516 0.500000
vt 0.771315 0.750000
vt 0.750000 -0.002570
vt 0.875000 -0.003352
vt 0.750000 0.250000
vt 0.875000 0.250000
vt 0.755484 0.500000
vt 0.869516 0.500000
vt 0.771315 0.750000
vt 0.750000 -0.002570
vt 0.875000 -0.003352
vt 0.750000 0.250000
vt 0.875000 0.250000
vt 0.755484 0.500000
vt 0.869516 0.500000
vt 0.771315 0.750000
vt 0.750000 -0.002570
vt 0.875000 -0.003352
vt 0.750000 0.250000
vt 0.875000 0.250000
vt 0.755484 0.500000
vt 0.869516 0.500000
vt 0.771315 0.750000
vt 0.750000 -0.002570
vt 0.875000 -0.003352
vt 0.750000 0.250000
vt 0.875000 0.250000
vt 0.755484 0.500000
vt 0.869516 0.500000
vt 0.771315 0.750000
vt 0.750000 -0.002570
vt 0.875000 -0.003352
vt 0.750000 0.250000
vt 0.875000 0.250000
vt 0.755484 0.500000
vt 0.869516 0.500000
vt 0.771315 0.750000
vt 0.750000 -0.002570
vt 0.875000 -0.003352
vt 0.750000 0.250000
vt 0.875000 0.250000
vt 0.755484 0.500000
vt 0.869516 0.500000
vt 0.771315 0.750000
vt 0.750000 -0.002570
vt 0.875000 -0.003352
vt 0.750000 0.250000
vt 0.875000 0.250000
vt 0.755484 0.500000
vt 0.869516 0.500000
vt 0.771315 0.750000
vt 0.750000 -0.002570
vt 0.875000 -0.003352
vt 0.750000 0.250000
vt 0.875000 0.250000
vt 0.755484 0.500000
vt 0.869516 0.500000
vt 0.853685 0.750000
vt 0.750000 -0.002570
vt 0.875000 -0.003352
vt 0.750000 0.250000
vt 0.875000 0.250000
vt 0.755484 0.500000
vt 0.869516 0.500000
vt 0.771315 0.750000
vt 0.750000 -0.002570
vt 0.875000 -0.003352
vt 0.750000 0.250000
vt 0.875000 0.250000
vt 0.755484 0.500000
vt 0.869516 0.500000
vt 0.771315 0.750000
vt 0.750000 -0.002570
vt 0.875000 -0.003352
vt 0.750000 0.250000
vt 0.875000 0.250000
vt 0.853685 0.750000
vt 0.812500 1.000000
vt 0.853685 0.750000
vt 0.853685 0.750000
vt 0.853685 0.750000
vt 0.853685 0.750000
vt 0.853685 0.750000
vt 0.853685 0.750000
vt 0.853685 0.750000
vt 0.853685 0.750000
vt 0.853685 0.750000
vt 0.853685 0.750000
vt 0.853685 0.750000
vt 0.771315 0.750000
vt 0.853685 0.750000
vt 0.853685 0.750000
vt 0.755484 0.500000
vt 0.869516 0.500000
vt 0.771315 0.750000
vt 0.853685 0.750000
vt 0.750000 -0.002570
vt 0.875000 -0.003352
vt 0.750000 0.250000
vt 0.875000 0.250000
vt 0.500000 1.000000
vn -0.4067 -0.6024 -0.6868
vn 0.8203 -0.5481 0.1632
vn 0.5522 -0.8264 0.1098
vn 0.9626 -0.1915 0.1915
vn 0.4681 -0.8264 0.3128
vn 0.8161 -0.1915 0.5453
vn 0.6954 -0.5481 0.4647
vn 0.3128 -0.8264 0.4681
vn 0.5453 -0.1915 0.8161
vn 0.4647 -0.5481 0.6954
vn 0.1098 -0.8264 0.5522
vn 0.1915 -0.1915 0.9626
vn 0.1632 -0.5481 0.8203
vn -0.1098 -0.8264 0.5522
vn -0.1915 -0.1915 0.9626
vn -0.1632 -0.5481 0.8203
vn -0.3128 -0.8264 0.4681
vn -0.5453 -0.1915 0.8161
vn -0.4647 -0.5481 0.6954
vn -0.4681 -0.8264 0.3128
vn -0.8161 -0.1915 0.5453
vn -0.6954 -0.5481 0.4647
vn -0.5522 -0.8264 0.1098
vn -0.9626 -0.1915 0.1915
vn -0.8203 -0.5481 0.1632
vn -0.5522 -0.8264 -0.1098
vn -0.9626 -0.1915 -0.1915
vn -0.8203 -0.5481 -0.1632
vn -0.4681 -0.8264 -0.3128
vn -0.8161 -0.1915 -0.5453
vn -0.6954 -0.5481 -0.4647
vn -0.3128 -0.8264 -0.4681
vn -0.5453 -0.1915 -0.8161
vn -0.4647 -0.5481 -0.6954
vn -0.1098 -0.8264 -0.5522
vn -0.1915 -0.1915 -0.9626
vn -0.1632 -0.5481 -0.8203
vn 0.1098 -0.8264 -0.5522
vn 0.1915 -0.1915 -0.9626
vn 0.1632 -0.5481 -0.8203
vn 0.3128 -0.8264 -0.4681
vn 0.5453 -0.1915 -0.8161
vn 0.4647 -0.5481 -0.6954
vn 0.4681 -0.8264 -0.3128
vn 0.8161 -0.1915 -0.5453
vn 0.6954 -0.5481 -0.4647
vn 0.1949 -0.9800 0.0388
vn 0.1653 -0.9800 0.1104
vn 0.1104 -0.9800 0.1653
vn 0.0388 -0.9800 0.1949
vn -0.0388 -0.9800 0.1949
vn -0.1104 -0.9800 0.1653
vn -0.1653 -0.9800 0.1104
vn -0.1949 -0.9800 0.0388
vn -0.1949 -0.9800 -0.0388
vn -0.1653 -0.9800 -0.1104
vn -0.1104 -0.9800 -0.1653
vn -0.0388 -0.9800 -0.1949
vn 0.0388 -0.9800 -0.1949
vn 0.1104 -0.9800 -0.1653
vn 0.1653 -0.9800 -0.1104
vn 0.5522 -0.8264 -0.1098
vn 0.1949 -0.9800 -0.0388
vn 0.9626 -0.1915 -0.1915
vn 0.8203 -0.5481 -0.1632
s off
f 1/1/1 2/2/1 3/3/1
f 4/4/2 5/5/2 6/6/2
f 6/6/3 7/7/3 8/8/3
f 9/9/4 10/10/4 4/4/4
f 7/11/5 11/12/5 12/13/5
f 10/14/6 13/15/6 5/16/6
f 5/16/7 14/17/7 7/11/7
f 11/18/8 15/19/8 16/20/8
f 13/21/9 17/22/9 14/23/9
f 14/23/10 18/24/10 11/18/10
f 15/25/11 19/26/11 20/27/11
f 17/28/12 21/29/12 18/30/12
f 18/30/13 22/31/13 15/25/13
f 19/32/14 23/33/14 24/34/14
f 21/35/15 25/36/15 22/37/15
f 22/37/16 26/38/16 19/32/16
f 23/39/17 27/40/17 28/41/17
f 25/42/18 29/43/18 26/44/18
f 26/44/19 30/45/19 23/39/19
f 27/46/20 31/47/20 32/48/20
f 29/49/21 33/50/21 30/51/21
f 30/51/22 34/52/22 27/46/22
f 31/53/23 35/54/23 36/55/23
f 33/56/24 37/57/24 34/58/24
f 34/58/25 38/59/25 31/53/25
f 35/60/26 39/61/26 40/62/26
f 37/63/27 41/64/27 38/65/27
f 38/65/28 42/66/28 35/60/28
f 39/67/29 43/68/29 44/69/29
f 41/70/30 45/71/30 42/72/30
f 42/72/31 46/73/31 39/67/31
f 43/74/32 47/75/32 48/76/32
f 45/77/33 49/78/33 46/79/33
f 46/79/34 50/80/34 43/74/34
f 47/81/35 51/82/35 52/83/35
f 49/84/36 53/85/36 50/86/36
f 50/86/37 54/87/37 47/81/37
f 51/88/38 55/89/38 56/90/38
f 53/91/39 57/92/39 54/93/39
f 54/93/40 58/94/40 51/88/40
f 55/95/41 59/96/41 56/97/41
f 57/98/42 60/99/42 58/100/42
f 58/100/43 61/101/43 55/95/43
f 59/102/44 62/103/44 63/104/44
f 60/105/45 64/106/45 61/107/45
f 61/107/46 65/108/46 59/102/46
f 8/8/47 12/109/47 66/110/47
f 12/13/48 16/111/48 66/110/48
f 16/20/49 20/112/49 66/110/49
f 20/27/50 24/113/50 66/110/50
f 24/34/51 28/114/51 66/110/51
f 28/41/52 32/115/52 66/110/52
f 32/48/53 36/116/53 66/110/53
f 36/55/54 40/117/54 66/110/54
f 40/62/55 44/118/55 66/110/55
f 44/69/56 48/119/56 66/110/56
f 48/76/57 52/120/57 66/110/57
f 52/83/58 67/121/58 66/110/58
f 67/122/59 56/90/59 66/110/59
f 56/97/60 63/123/60 66/110/60
f 63/104/61 68/124/61 66/110/61
f 62/125/62 6/126/62 68/127/62
f 68/127/63 8/128/63 66/110/63
f 64/129/64 9/130/64 65/131/64
f 65/131/65 4/132/65 62/125/65
f 2/2/1 69/133/1 3/3/1
f 5/5/2 7/7/2 6/6/2
f 7/7/3 12/109/3 8/8/3
f 10/10/4 5/5/4 4/4/4
f 11/12/5 16/111/5 12/13/5
f 13/15/6 14/17/6 5/16/6
f 14/17/7 11/12/7 7/11/7
f 15/19/8 20/112/8 16/20/8
f 17/22/9 18/24/9 14/23/9
f 18/24/10 15/19/10 11/18/10
f 19/26/11 24/113/11 20/27/11
f 21/29/12 22/31/12 18/30/12
f 22/31/13 19/26/13 15/25/13
f 23/33/14 28/114/14 24/34/14
f 25/36/15 26/38/15 22/37/15
f 26/38/16 23/33/16 19/32/16
f 27/40/17 32/115/17 28/41/17
f 29/43/18 30/45/18 26/44/18
f 30/45/19 27/40/19 23/39/19
f 31/47/20 36/116/20 32/48/20
f 33/50/21 34/52/21 30/51/21
f 34/52/22 31/47/22 27/46/22
f 35/54/23 40/117/23 36/55/23
f 37/57/24 38/59/24 34/58/24
f 38/59/25 35/54/25 31/53/25
f 39/61/26 44/118/26 40/62/26
f 41/64/27 42/66/27 38/65/27
f 42/66/28 39/61/28 35/60/28
f 43/68/29 48/119/29 44/69/29
f 45/71/30 46/73/30 42/72/30
f 46/73/31 43/68/31 39/67/31
f 47/75/32 52/120/32 48/76/32
f 49/78/33 50/80/33 46/79/33
f 50/80/34 47/75/34 43/74/34
f 51/82/35 67/121/35 52/83/35
f 53/85/36 54/87/36 50/86/36
f 54/87/37 51/82/37 47/81/37
f 67/122/38 51/88/38 56/90/38
f 57/92/39 58/94/39 54/93/39
f 58/94/40 55/89/40 51/88/40
f 59/96/41 63/123/41 56/97/41
f 60/99/42 61/101/42 58/100/42
f 61/101/43 59/96/43 55/95/43
f 62/103/44 68/124/44 63/104/44
f 64/106/45 65/108/45 61/107/45
f 65/108/46 62/103/46 59/102/46
f 6/126/62 8/128/62 68/127/62
f 9/130/64 4/132/64 65/131/64
f 4/132/65 6/126/65 62/125/65
